<svg width="253.000000" height="188.000000" viewBox="0 0 253 188" fill="none" xmlns="http://www.w3.org/2000/svg" xmlns:xlink="http://www.w3.org/1999/xlink">
	<desc>
			Created with Pixso.
	</desc>
	<defs/>
	<path id="lover flower" d="M18.18 136.43L19.91 136.12C20.2 135.9 20.51 135.85 20.8 135.63C25.19 133.86 28.73 130.95 32.21 127.71C34.86 125.28 37.32 122.72 39.36 119.59C39.85 118.69 40.55 118.08 41.59 117.56C42.9 116.68 44.39 115.92 45.87 115.16L55.67 109.97C59.12 108.37 62.6 106.93 66.08 105.49C72.43 102.88 78.76 100.11 85.17 97.81C93.1 94.91 100.91 92.2 109.04 90.4C109.48 90.16 109.82 90.26 109.87 89.6C109.81 89.28 109.28 89.06 108.97 89.11C108.85 89.11 108.72 89.11 108.59 89.1C107.83 89.08 106.91 89.04 106.42 89.41C104.64 90.38 102.6 90.75 100.74 91.25C94.52 92.86 88.64 95.39 82.64 97.29C78.98 98.6 75.65 100.02 72.2 101.62C67.39 103.79 62.37 105.67 57.56 107.84C53.06 109.96 48.6 112.23 44.13 114.5C44.09 114.53 44.05 114.56 44 114.6C43.73 114.81 43.4 115.08 43.21 114.83C42.87 114.47 43.13 114.13 43.37 113.8C43.41 113.75 43.45 113.69 43.49 113.64C44.36 112.18 45.42 110.85 46.27 109.24C48.99 104.52 51.15 99.41 53.13 94.17C55.11 88.94 56.94 83.73 57.89 78.19C58.62 74.16 59.32 69.96 59.71 65.83C59.96 62.69 60.05 59.59 60.27 56.3C60.53 52.35 60.44 48.3 60.36 44.25C60.22 39.88 59.8 35.73 59.19 31.45C59.17 31.36 59.15 31.24 59.13 31.12C59.04 30.46 58.9 29.55 58.37 29.65C57.58 29.79 58.1 30.84 57.9 31.52L58.01 32.15C58.55 35.15 58.59 38.06 58.79 40.96C59.32 46.55 59.5 52.05 59.18 57.47C58.7 62.92 58.38 68.35 57.59 73.86C56.34 82.21 53.42 90.38 50.3 98.26C47.77 104.09 44.85 109.49 41.42 114.83C40.78 115.76 40.29 116.66 39.12 117.36C32.8 121.1 26.39 125.19 20.59 129.98C19.03 131.24 17.71 132.94 17.08 134.84C16.62 135.9 17.05 136.47 18.18 136.43ZM142.82 61.85C142.2 62.94 141.75 64 142.6 65.14C143.43 66.13 144.59 66.24 145.88 66.17C146.01 65.99 146.32 65.93 146.64 65.87C151.03 64.1 154.11 60.46 157.22 56.97C157.35 56.78 157.32 56.62 157.29 56.47C157.27 56.31 157.11 56.34 156.79 56.39C156.35 56.64 155.72 56.75 155.33 57.31C154.17 58.98 152.58 60.08 151.02 61.34C149.33 62.79 147.46 64.1 145.31 64.81C144.84 64.9 144.21 65.01 143.78 64.44C143.57 64.07 143.72 63.75 143.91 63.34C143.95 63.26 143.98 63.18 144.02 63.1C144.94 60.98 146.17 58.8 147.62 56.92C147.66 56.85 147.71 56.79 147.75 56.73C148.09 56.27 148.35 55.9 147.83 55.41C147.41 54.84 146.78 54.96 146.17 55.23C145.13 55.74 144.11 56.41 143.07 56.93C142.78 57.14 142.34 57.38 142.12 57.1C141.86 56.91 141.99 56.66 142.13 56.4C142.18 56.3 142.24 56.19 142.27 56.1C142.83 54.69 143.39 53.29 143.76 51.76C143.83 51.26 143.88 50.6 143.35 50.37C142.63 50.01 142.13 49.94 141.56 50.37C141.43 50.56 141.14 50.77 141.01 50.96C138.99 53.27 137.32 55.69 136.2 58.49C135.77 59.57 135.94 60.25 136.72 60.61C135.18 61.4 133.61 62.24 132.11 62.97C129.29 64.46 126.63 65.92 123.72 66.93C122.81 67.26 121.7 67.46 120.67 67.16C120.33 67.06 119.96 66.8 119.87 66.33C119.82 66.01 120.29 65.93 120.6 65.87C121.78 65.17 122.95 64.47 123.94 63.64C124.9 62.65 125.04 61.65 124.4 60.79C123.57 59.8 122.28 59.87 121.32 60.86C120.4 61.55 119.65 62.41 119 63.32C117.04 64 115.1 64.78 113.14 65.43C111.63 66.03 110.24 66.44 108.88 67.01C108.28 67.29 107.9 67.03 108.08 66.18C108.33 65.81 108.41 65.31 108.32 64.84C108.46 63.84 108.01 63.11 107.01 62.96C106.13 62.63 105.56 63.06 105.2 63.78C104.71 64.68 104.23 65.58 103.71 66.32C103.22 67.22 103.37 68.01 104.11 68.53C104.85 69.04 104.75 69.39 104.37 69.94C103.23 71.78 103.48 72.22 101.92 73.48C100.64 74.52 99.39 75.72 97.85 76.16C96.27 76.45 95.72 76.06 95.78 74.59C95.72 72.48 96.48 70.4 96.77 68.39C97 67.86 97.04 67.21 96.51 66.98C95.9 66.85 95.61 67.09 95.42 67.5C94.69 67.65 94 67.92 93.41 68.02C92.9 68.12 92.38 68.22 91.87 68.32C90.36 68.63 88.86 68.93 87.4 68.95C86.93 69.03 86.68 68.59 86.44 68.15C85.28 66.24 83.44 65.93 81.78 67.53C81.71 67.6 81.65 67.67 81.58 67.75C80.96 68.45 80.3 69.19 80.6 70.02C80.93 70.93 81.96 71.23 82.9 71.06C83.56 71.11 83.62 71.42 83.2 71.82C82.79 72.22 82.4 72.78 81.83 73.21C81.74 73.27 81.66 73.34 81.57 73.41C80.8 74 80.03 74.59 79.05 74.04C77.97 73.42 78.4 72.2 78.73 71.33C78.74 71.27 78.76 71.22 78.78 71.16C78.89 70.87 79 70.58 78.55 70.39C78.18 70.13 77.74 70.37 77.48 70.74C76.97 71.49 76.99 73.43 77.45 74.16C77.94 75.05 79.52 75.74 80.63 75.54C81.26 75.43 81.7 75.18 82.27 74.76C83.57 73.87 84.69 72.85 85.57 71.39C85.92 70.68 86.47 70.09 87.28 70.11C89.48 70.22 91.63 69.54 93.88 68.83C94.31 68.69 94.73 68.56 95.17 68.42C94.85 70.14 94.43 71.89 94.16 73.74C93.8 76.25 95.72 77.85 98.23 77.4C98.86 77.28 99.34 77.2 99.62 76.98C103.02 75.07 103.7 73.48 105.74 70.35C106.13 69.79 106.36 69.26 107.14 69.12C110.9 68.01 114.56 66.31 118.19 64.53C118.12 64.65 118.05 64.76 117.98 64.88C117.86 65.07 117.76 65.41 117.81 65.72C118.2 66.95 118.71 68 120.06 68.24C121.43 68.65 122.75 68.73 124.14 68.32C125.65 67.72 126.98 66.99 128.5 66.39C131.72 64.73 134.89 62.85 137.96 60.85C138.44 60.85 138.84 60.75 139.33 60.53C140.85 59.93 142.34 59.17 143.83 58.42C143.95 58.23 144.08 58.04 144.43 58.14C144.6 58.38 144.55 58.55 144.47 58.79C144.45 58.84 144.43 58.9 144.41 58.96C143.77 59.89 143.31 60.95 142.82 61.85ZM139.35 57.93C138.93 58.33 138.92 59.14 138.13 59.28C137.81 59.34 137.6 59.05 137.7 58.71C137.77 58.21 137.84 57.71 138.1 57.34C138.89 55.41 140.27 54.02 141.58 52.32C141.71 52.13 141.84 51.95 142.03 52.07C142.37 52.17 142.27 52.52 142.14 52.7C141.32 54.48 140.69 56.38 139.35 57.93ZM107.1 64.41C107.35 64.85 106.23 67.66 105.6 67.77C105.13 67.86 104.75 67.6 104.83 67.1C105.13 66.07 105.77 65.14 106.45 64.37C106.73 64.15 106.89 64.12 107.1 64.41ZM152.53 129.69C152.15 131.09 151.78 132.48 152.38 133.86C153.1 136.98 154.93 138.11 157.5 137C158.7 136.45 159.69 135.63 160.65 134.64C162.45 132.38 164.11 130.03 165.99 127.82C166.02 128.38 166.13 128.91 166.33 129.22C166.81 130.11 168.4 130.8 169.5 130.6C170.13 130.48 170.58 130.24 171.15 129.81C172.45 128.92 173.57 127.91 174.44 126.45C174.8 125.74 175.35 125.15 176.16 125.17C178.36 125.28 180.51 124.6 182.76 123.88C183.21 123.74 183.66 123.6 184.12 123.46C183.7 124.73 183.63 126.05 183.41 127.27C183.34 127.77 183.58 128.21 183.95 128.47C185.07 129.25 186.07 129.39 187.19 128.37C187.47 128.16 187.89 127.76 188.15 127.39C188.69 126.8 188.91 127.09 189.02 127.72C189.25 128.98 190.12 129.31 191.15 129.61C192.15 129.75 193.07 129.42 193.8 128.97C195.55 127.84 196.32 126.72 197.11 124.79C197.85 123.52 198.78 122.37 200.36 122.09C201.3 121.92 202.03 121.46 202.95 121.13C204.38 120.6 205.78 119.95 207.2 119.38C207.09 119.56 206.97 119.75 206.86 119.94C206.73 120.12 206.63 120.47 206.69 120.78C207.08 122.01 207.59 123.06 208.93 123.3C210.31 123.7 211.62 123.79 213.01 123.38C214.53 122.78 215.86 122.05 217.38 121.45C220.59 119.78 223.77 117.9 226.83 115.91C227.32 115.9 227.72 115.81 228.21 115.59C229.73 114.99 231.21 114.23 232.7 113.47C232.83 113.29 232.96 113.1 233.3 113.2C233.48 113.44 233.42 113.6 233.34 113.85C233.33 113.9 233.31 113.96 233.29 114.02C232.64 114.95 232.19 116.01 231.7 116.91C231.08 117.99 230.62 119.05 231.48 120.2C232.31 121.19 233.47 121.3 234.76 121.23C234.89 121.05 235.2 120.99 235.52 120.93C239.91 119.16 242.99 115.51 246.1 112.02C246.23 111.84 246.2 111.68 246.17 111.52C246.14 111.37 245.99 111.39 245.67 111.45C245.23 111.69 244.6 111.81 244.21 112.37C243.05 114.04 241.46 115.14 239.9 116.4C238.21 117.84 236.33 119.16 234.19 119.87C233.71 119.96 233.08 120.07 232.65 119.5C232.45 119.12 232.6 118.8 232.79 118.4C232.83 118.32 232.86 118.24 232.9 118.15C233.82 116.04 235.05 113.86 236.5 111.97C236.54 111.91 236.59 111.85 236.63 111.79C236.97 111.32 237.23 110.95 236.71 110.47C236.28 109.9 235.65 110.01 235.05 110.28C234.01 110.8 232.99 111.47 231.95 111.98C231.66 112.2 231.22 112.44 231 112.15C230.74 111.97 230.87 111.71 231.01 111.46C231.06 111.35 231.12 111.25 231.15 111.15C231.7 109.75 232.26 108.35 232.64 106.82C232.71 106.32 232.75 105.66 232.22 105.43C231.51 105.07 231.01 105 230.43 105.43C230.31 105.61 230.02 105.83 229.89 106.01C227.87 108.33 226.19 110.75 225.08 113.55C224.65 114.63 224.82 115.31 225.6 115.66C224.06 116.46 222.49 117.29 220.99 118.03C218.17 119.52 215.51 120.97 212.6 121.99C211.68 122.32 210.58 122.52 209.55 122.21C209.21 122.11 208.84 121.86 208.75 121.38C208.69 121.07 209.17 120.98 209.48 120.93C210.65 120.23 211.83 119.53 212.82 118.7C213.78 117.71 213.92 116.71 213.28 115.85C212.45 114.86 211.16 114.93 210.2 115.92C209.32 116.58 208.59 117.4 207.95 118.27C207.9 118.28 207.85 118.3 207.8 118.3L207.33 118.39C205 118.97 202.56 119.9 200.1 120.67C199.34 120.97 198.69 120.93 198.36 120.01C197.87 119.12 197.03 118.95 196.18 118.78C195.34 118.61 194.64 119.22 194.62 120.04C194.61 120.85 195.04 121.43 195.78 121.94C196.12 122.04 196.34 122.33 196.27 122.83C195.25 125.29 194 126.49 191.81 127.86C191.4 128.26 191.02 128 190.91 127.38C190.74 126.43 190.54 125.33 191 124.27C191.23 123.74 191.14 123.27 190.46 123.07C189.9 122.68 189.45 122.92 189.07 123.48C188.29 124.6 187.2 125.77 185.93 126.81C185.8 127 185.67 127.18 185.49 127.06C185.19 126.97 185.24 126.82 185.33 126.57C185.34 126.53 185.36 126.48 185.37 126.43C185.54 125.58 185.53 124.61 186.02 123.71C186.22 123.02 186.16 122.71 185.45 122.35C185 122.12 184.74 122.25 184.56 122.5C184.52 122.51 184.49 122.52 184.47 122.53C183.68 122.67 182.92 122.97 182.29 123.08C181.78 123.17 181.26 123.28 180.75 123.38C179.23 123.69 177.74 123.99 176.28 124.01C175.81 124.09 175.56 123.65 175.32 123.2C174.16 121.3 172.32 120.98 170.66 122.58C170.59 122.66 170.53 122.73 170.46 122.81C169.83 123.51 169.18 124.24 169.48 125.07C169.81 125.99 170.84 126.29 171.78 126.12C172.44 126.16 172.5 126.48 172.08 126.88C171.67 127.28 171.28 127.84 170.71 128.27C170.62 128.33 170.54 128.4 170.45 128.46C169.68 129.06 168.91 129.65 167.93 129.09C166.84 128.48 167.27 127.26 167.6 126.39C167.62 126.33 167.64 126.27 167.66 126.22C167.77 125.93 167.87 125.64 167.43 125.44C167.06 125.19 166.62 125.43 166.36 125.8C166.18 126.06 166.07 126.46 166.02 126.9C163.93 129.21 161.95 131.48 159.82 133.65C158.86 134.64 157.74 135.65 156.35 136.07C155.59 136.37 154.94 136.32 154.32 135.62C153.44 134.32 153.58 131.53 154.51 130.38C156.63 127.72 158.44 125.12 160.21 122.36C164.64 115.38 169.26 108.53 172.78 101.06C174.32 97.86 176.04 94.78 177.6 91.73C178.68 89.59 179.59 87.47 180.73 85.64C182.25 83.07 183.44 80.28 184.64 77.6C184.92 77.5 185.21 77.4 185.49 77.3C185.58 77.25 185.67 77.21 185.75 77.17C186.1 77.01 186.36 76.88 186.17 76.53C186.09 76.11 185.8 75.86 185.42 75.97C186.72 73.27 187.78 70.5 188.68 67.62C189.77 64.66 190.71 61.72 190.8 58.62C190.81 57.8 190.67 57.01 189.92 56.5C189.02 56.01 188.24 56.15 187.38 56.8C186.96 57.2 186.55 57.6 186.29 57.97C184.91 59.36 183.91 61 182.75 62.67C180.3 66.21 178.19 69.84 176.09 73.47C174.67 75.9 173.27 78.37 171.91 80.85C166.05 82.88 160.16 84.96 154.46 87.3C146.4 90.39 138.4 93.79 130.61 97.47C123.45 101.04 116.35 104.93 109.25 108.82C103.32 112 97.61 115.48 91.92 119.11C91.19 119.56 90.49 120.18 89.92 120.61C89.88 120.66 89.83 120.71 89.77 120.77C89.6 120.92 89.4 121.11 89.56 121.32C89.77 121.61 90.06 121.39 90.19 121.21C92.02 120.55 93.45 119.48 95.07 118.54C103.65 112.92 112.52 108.06 121.59 103.33C128.85 99.42 136.32 95.79 144.04 92.6C149.19 90.53 154.16 88.33 159.34 86.42C163.27 84.98 167.21 83.59 171.15 82.23C170.03 84.31 168.94 86.38 167.9 88.45C165.42 93.61 162.91 98.62 160.59 103.76C160.49 103.99 160.39 104.21 160.29 104.44Q154.03 107.95 147.83 111.76C147.73 111.77 147.62 111.83 147.5 111.88C147.25 112 146.98 112.13 146.72 111.96C146.36 111.8 146.43 111.49 146.49 111.21C146.52 111.08 146.54 110.95 146.53 110.85C147.23 106.66 147.62 102.53 147.82 98.26C147.81 97.29 147.61 96.19 147.25 95.11C147.2 94.8 146.98 94.51 146.51 94.6C146.13 94.66 146.21 94.96 146.29 95.24C146.31 95.31 146.33 95.38 146.34 95.44C146.54 96.54 146.58 97.67 146.46 98.83C146.29 103.25 145.64 107.76 145.15 112.24C145.14 113.06 144.59 113.64 143.86 114.1C139.35 117.03 134.87 120.12 130.76 123.46C124.83 128.44 118.9 133.41 113.74 139.06C109.26 143.94 105.71 149.46 102.71 155.36C101.02 158.6 99.98 161.87 99.82 165.48C99.71 170.22 102.27 172.68 106.92 172.33C107.89 172.31 108.99 172.11 110.12 172.07C112.48 171.64 114.6 170.77 116.69 169.75C121.55 166.92 125.6 163.25 129.2 158.87C132.12 155.25 134.45 151.08 136.61 146.79C138.63 142.69 140.28 138.32 141.77 133.99C143.69 128.44 144.95 122.84 145.72 117.18C146.01 115.17 146.54 113.62 148.63 112.59C152.27 110.46 155.78 108.09 159.53 106.08C158.69 107.92 157.82 109.74 157.15 111.7C155.17 116.93 153.69 122.24 152.92 127.91C152.84 128.5 152.68 129.1 152.53 129.69ZM161.32 105.17C159.51 109.33 157.73 113.53 156.47 117.83C155.69 120.74 155.08 123.61 154.46 126.49C154.45 126.52 154.44 126.56 154.43 126.59C154.32 126.93 154.18 127.39 154.66 127.59C155.03 127.65 155.16 127.38 155.32 127.09C155.37 126.99 155.42 126.89 155.49 126.79C157.97 123.42 160.23 119.76 162.5 116.09C166.36 110.52 169.52 104.58 172.83 98.61C174.88 94.67 176.9 90.56 179.11 86.58C180.58 83.76 181.99 80.93 183.31 78.06C179.75 79.29 176.18 80.5 172.61 81.73C171.64 83.47 170.68 85.21 169.75 86.98C167.37 91.8 165.02 96.78 162.82 101.73C162.57 102.3 162.32 102.87 162.07 103.45Q162.9 102.99 163.72 102.54C163.88 102.51 164.01 102.32 164.32 102.27C164.64 102.21 164.82 102.34 165.04 102.63C165.21 102.86 165.06 103.04 164.92 103.2C164.89 103.24 164.86 103.28 164.84 103.31C164.26 103.74 163.85 104.14 163.37 104.23C162.68 104.52 162 104.84 161.32 105.17ZM173.39 80.33C175.74 79.52 178.08 78.71 180.4 77.9C181.65 77.43 182.81 76.98 184.01 76.52C185.77 72.57 187.33 68.54 188.59 64.38C189.19 62.32 189.61 60.13 189.52 57.87C189.38 57.08 188.69 56.88 187.99 57.5C186.01 59.16 184.94 61.3 183.65 63.16C181.1 67.04 178.71 70.89 176.47 74.7C175.47 76.6 174.43 78.47 173.39 80.33ZM21.23 134.42C20.63 134.69 19.87 134.99 19.4 135.07C18.64 135.37 18.42 135.09 18.5 134.59C18.54 133.93 18.95 133.53 19.37 133.13C21.91 130.07 25.11 128.02 28.26 125.66C30.87 123.89 33.48 122.12 36.11 120.5C36.14 120.48 36.18 120.45 36.22 120.42C36.5 120.2 36.86 119.92 37.18 120.15C37.4 120.54 37.07 120.78 36.79 120.98C36.76 121 36.73 121.03 36.7 121.05C34.71 123.52 32.53 125.87 30.32 128.06C27.54 130.67 24.65 132.66 21.23 134.42ZM114.27 169.86C112.76 170.46 111.21 170.9 109.45 171.06C109.18 171.11 108.9 171.16 108.63 171.22C107.81 171.4 106.99 171.58 106.12 171.5C102.19 171.39 100.35 169.29 100.77 165.31C101.12 161.83 102.15 158.56 103.87 155.48C105.33 152.78 106.79 150.07 108.47 147.66C111.08 144.1 113.68 140.53 116.72 137.55C121.42 132.96 126.15 128.52 131.27 124.51C135.41 121.32 139.42 118.32 143.64 115.6C143.7 115.56 143.76 115.51 143.81 115.46C144.04 115.26 144.26 115.07 144.56 115.27C144.93 115.53 144.83 115.87 144.7 116.06C144.33 119.38 143.74 122.41 143.02 125.63C140.84 135.13 137.09 144.1 132.14 152.64C129.9 156.46 127.13 160.05 123.78 163.1C120.88 165.9 117.88 168.23 114.27 169.86ZM228.22 112.98C227.81 113.38 227.79 114.2 227.01 114.34C226.69 114.4 226.48 114.11 226.58 113.77C226.65 113.27 226.72 112.77 226.98 112.39C227.77 110.46 229.14 109.08 230.46 107.37C230.59 107.19 230.72 107 230.91 107.13C231.25 107.23 231.15 107.58 231.02 107.76C230.2 109.54 229.57 111.44 228.22 112.98Z" fill="#1F3A3A" fill-opacity="1.000000" fill-rule="evenodd"/>
</svg>
