<svg xmlns="http://www.w3.org/2000/svg" xmlns:xlink="http://www.w3.org/1999/xlink"><symbol id="cart" viewBox="0 0 25 22"><g><path d="m24.53 20.21-1.66-15c-.04-.34-.21-.66-.46-.89-.26-.23-.6-.36-.94-.36h-4.34A5.183 5.183 0 0 0 15.47.62a5.18 5.18 0 0 0-6.95 0c-.95.87-1.54 2.06-1.66 3.34H2.52c-.34 0-.68.13-.94.36-.25.23-.42.55-.46.89l-1.66 15a1.438 1.438 0 0 0 .35 1.1c.13.15.29.26.47.34.18.09.38.13.57.13h22.28c.2 0 .4-.04.58-.13.18-.08.34-.19.47-.34.13-.15.23-.32.29-.51.06-.19.08-.39.06-.59ZM12 .21c1.03.01 2.03.39 2.81 1.08.77.69 1.26 1.64 1.38 2.67H7.8c.12-1.03.61-1.98 1.38-2.67C9.96.6 10.96.22 12 .21Zm11.48 20.47c-.04.05-.09.09-.15.12s-.13.04-.19.04H.85c-.06 0-.13-.01-.19-.04a.443.443 0 0 1-.15-.12.367.367 0 0 1-.1-.17c-.02-.06-.03-.13-.02-.19l1.67-15c.01-.12.06-.22.15-.3.08-.08.2-.12.31-.12h4.32v3.28c0 .13.05.25.14.33.08.09.2.14.33.14.12 0 .24-.05.33-.14.09-.08.14-.2.14-.33V4.9h8.43v3.28c0 .13.05.25.14.33.09.09.21.14.33.14.13 0 .25-.05.33-.14.09-.08.14-.2.14-.33V4.9h4.32c.11 0 .23.04.31.12.09.08.14.18.15.3l1.67 15c.01.06 0 .13-.02.19-.02.07-.05.12-.1.17Z"/></g></symbol><symbol id="close" viewBox="0 0 9 9"><g><path d="m8.42-.94.51.51-9.36 9.36-.51-.51L8.42-.94Z"/><path d="m-.43-.94 9.36 9.36-.51.51L-.94-.43l.51-.51Z"/></g></symbol><symbol id="instagram" viewBox="0 0 25 25"><g><path d="M12.48 8.32c-2.29 0-4.16 1.87-4.16 4.17a4.17 4.17 0 0 0 4.16 4.16c2.3 0 4.17-1.87 4.17-4.16 0-2.3-1.87-4.17-4.17-4.17Zm12.5 4.17c0-1.73.01-3.44-.08-5.16-.1-2 .05-4.38-1.42-5.84C22.02.02 19.64.17 17.64.08 15.92-.02 14.21 0 12.49 0c-1.73 0-3.44-.02-5.16.08-2 .09-4.38-.06-5.85 1.41C.02 2.95.17 5.33.08 7.33-.02 9.06 0 10.76 0 12.49c0 1.72-.02 3.43.08 5.15.09 2-.06 4.38 1.4 5.85 1.47 1.46 3.85 1.31 5.85 1.41 1.73.09 3.43.08 5.16.08 1.72 0 3.43.01 5.15-.08 2-.1 4.38.05 5.84-1.41 1.47-1.47 1.32-3.85 1.42-5.85.1-1.72.08-3.43.08-5.15Zm-12.5 6.41a6.41 6.41 0 0 1-6.41-6.41c0-3.55 2.87-6.41 6.41-6.41 3.55 0 6.41 2.86 6.41 6.41 0 3.54-2.86 6.41-6.41 6.41Zm6.68-11.59a1.496 1.496 0 1 1 1.49-1.5c0 .2-.04.4-.11.58-.08.18-.19.34-.33.48-.13.14-.3.25-.48.33-.18.07-.38.11-.57.11Z"/></g></symbol><symbol id="logo" viewBox="0 0 34 75"><g><path d="M11.04 53.09c-.24-.56-.36-1.42-.36-2.58V23.03c0-1.2.12-2.08.36-2.64.28-.6.78-1 1.5-1.2.76-.24 1.92-.36 3.48-.36.08 0 .12-.13.12-.37 0-.23-.04-.35-.12-.35l-2.82.06c-1.68.08-3.06.12-4.14.12-.96 0-2.28-.04-3.96-.12l-2.94-.06c-.08 0-.12.12-.12.35q0 .33.09.36.01.01.03.01c1.56 0 2.7.12 3.42.36q.92.24 1.33.83.1.14.17.31c.28.56.42 1.44.42 2.64v27.78c0 1.2-.14 2.1-.42 2.7-.24.56-.74.94-1.5 1.14-.72.2-1.86.3-3.42.3-.08 0-.12.12-.12.36s.04.36.12.36h27.6c.36 0 .6-.06.72-.18.12-.16.18-.4.18-.72 0-2.04.18-4.64.54-7.8 0-.12-.12-.18-.36-.18-.2-.04-.3 0-.3.12-.72 5.08-3.06 7.62-7.02 7.62h-7.68c-1.52 0-2.64-.1-3.36-.3-.68-.2-1.16-.56-1.44-1.08Z" fill-rule="evenodd"/><path d="M30.25 35.82c.2 0 .3-.05.3-.15l-.1-6.05c0-.3-.15-.45-.45-.45H10.2c-.07 0-.1.1-.1.3 0 .2.03.3.1.3 1.3 0 2.25.1 2.85.3q.76.2 1.11.7.08.12.14.25c.23.47.35 1.2.35 2.2v23.15q0 1.5-.35 2.25c-.2.47-.62.78-1.25.95-.6.17-1.55.25-2.85.25-.07 0-.1.1-.1.3 0 .2.03.3.1.3q1.6 0 2.5-.05l3.3-.05 4.35.05q1.15.05 3.2.05c.1 0 .15-.1.15-.3 0-.2-.05-.3-.15-.3-1.87 0-3.24-.1-4.1-.3-.84-.2-1.41-.53-1.7-1-.3-.5-.46-1.28-.46-2.35V45.22h5.26c1.83 0 3.1.3 3.8.9q1.1.9 1.1 3.15c0 .07.1.1.3.1.2 0 .3-.03.3-.1L28 46.92q-.05-.7-.05-2.15l.05-3.95c0-.07-.1-.1-.3-.1-.2 0-.3.03-.3.1q0 1.72-.86 2.54-.09.08-.19.16c-.7.5-1.9.75-3.6.75h-5.46v-11q0-1.35.36-2c.23-.43.64-.73 1.25-.9.6-.17 1.51-.25 2.75-.25h3.45q1.38 0 2.43.59.61.35 1.12.91c.9 1 1.35 2.35 1.35 4.05 0 .1.08.15.25.15Z" fill-rule="evenodd"/></g></symbol><symbol id="phone" viewBox="0 0 14 14"><g><path d="M12.62 13.5c.62 0 1.13-.51 1.13-1.13V9.75c0-.63-.51-1.13-1.13-1.13-.88 0-1.74-.14-2.57-.41-.19-.06-.4-.07-.6-.02-.2.05-.39.15-.54.29L7.83 9.56a10.95 10.95 0 0 1-4.41-4.41l1.07-1.08c.31-.28.42-.72.29-1.14A8.26 8.26 0 0 1 4.37.37c0-.62-.5-1.12-1.12-1.12H.62C0-.75-.5-.25-.5.37c0 7.24 5.88 13.13 13.12 13.13ZM.62 0h2.63c.09 0 .19.03.26.1.07.08.11.17.11.27 0 .96.15 1.9.44 2.79.03.06.03.13.01.2a.27.27 0 0 1-.1.17L2.5 5.01c1.23 2.42 3.04 4.23 5.48 5.47l1.46-1.46c.05-.05.11-.09.18-.1.07-.02.14-.02.21 0 .89.3 1.83.45 2.79.45.21 0 .38.17.38.38v2.62c0 .21-.17.38-.38.38C5.8 12.75.25 7.19.25.37c0-.1.03-.19.1-.27C.42.03.52 0 .62 0Z"/></g></symbol><symbol id="search" viewBox="0 0 15 15"><g><path d="m13.94 13.55-3.22-3.23a6.22 6.22 0 0 0 1.62-4.39 6.207 6.207 0 0 0-1.92-4.26A6.18 6.18 0 0 0 6.07-.05c-1.61.02-3.16.67-4.31 1.81A6.225 6.225 0 0 0-.05 6.07a6.18 6.18 0 0 0 1.72 4.35 6.153 6.153 0 0 0 4.26 1.91c1.62.06 3.2-.52 4.39-1.61l3.23 3.22c.05.06.12.09.19.09.08 0 .15-.03.2-.09.06-.05.09-.12.09-.19 0-.08-.03-.15-.09-.2ZM.53 6.15c0-1.11.33-2.2.94-3.12C2.09 2.1 2.97 1.38 4 .95 5.03.53 6.16.42 7.25.63c1.09.22 2.09.76 2.88 1.54a5.64 5.64 0 0 1 1.54 2.88c.22 1.09.1 2.23-.32 3.25a5.695 5.695 0 0 1-2.07 2.53c-.93.62-2.02.95-3.13.95-1.49-.01-2.92-.6-3.97-1.65A5.624 5.624 0 0 1 .53 6.15Z"/></g></symbol><symbol id="viber" viewBox="0 0 24 24"><g><path d="M19.99 24h-16c-2 0-2.53-.3-3.12-.88C.29 22.53-.01 22 0 20V4C0 2 .29 1.46.87.87 1.46.29 1.99 0 3.99 0h16c.82 0 2.01.01 3 1 .98.98.98 2.17.98 3v16c.02 2-.29 2.53-.88 3.12-.58.58-1.1.88-3.1.88ZM7.49 9V6.75c0-.43-.13-.84-.39-1.25-.26-.4-.54-.69-.85-.86-.32-.18-.56-.18-.73-.03L3.81 6.35c-.47.47-.73 1.09-.79 1.88-.07.79.05 1.65.36 2.58.3.93.79 1.92 1.46 2.95.67 1.04 1.48 2.03 2.41 2.97.94.94 1.93 1.74 2.97 2.41 1.03.68 2.02 1.17 2.95 1.48.92.31 1.78.44 2.57.38.79-.07 1.42-.33 1.89-.8l1.73-1.74c.16-.15.15-.39-.02-.71-.18-.32-.47-.61-.87-.87-.41-.26-.82-.38-1.24-.38h-2.25l-1.52.93c-.7-.18-1.57-.69-2.6-1.52a18.4 18.4 0 0 1-2.79-2.79c-.82-1.03-1.33-1.9-1.52-2.6L7.49 9Zm8.94 3.75 1.52.25c-.12-1.87-.85-3.47-2.17-4.8-1.33-1.33-2.92-2.06-4.78-2.18l.23 1.52c1.36.17 2.52.74 3.49 1.71a5.85 5.85 0 0 1 1.71 3.5Zm-4.91-3.64.28 1.69c.61.3 1.07.76 1.38 1.38l1.68.28c-.2-.82-.6-1.54-1.2-2.14-.6-.6-1.32-1-2.14-1.21ZM10.49 3l.25 1.52c1.56.03 3 .44 4.32 1.23a8.94 8.94 0 0 1 3.16 3.16c.79 1.32 1.2 2.76 1.23 4.33l1.52.26c0-1.43-.27-2.79-.83-4.08-.55-1.3-1.3-2.42-2.23-3.35a10.53 10.53 0 0 0-3.35-2.24c-1.3-.56-2.65-.83-4.07-.83Z"/></g></symbol><symbol id="whatsup" viewBox="0 0 24 24"><g><path d="M23.57 4.91c-.01-.52-.06-1.04-.13-1.55-.08-.46-.23-.9-.44-1.32-.44-.88-1.16-1.6-2.04-2.05-.42-.2-.86-.35-1.31-.44-.52-.07-1.04-.11-1.56-.12-.22-.01-.51-.01-.64-.01L5.55-.59c-.14 0-.42.01-.64.01-.52.01-1.04.06-1.55.13-.46.09-.9.23-1.32.44C1.16.43.44 1.15-.01 2.03c-.2.42-.35.86-.44 1.31-.07.52-.11 1.04-.12 1.56-.01.22-.02.51-.02.64v11.9c0 .14.01.42.01.64.01.52.06 1.04.13 1.55.09.46.23.9.44 1.32.44.88 1.16 1.6 2.04 2.05.42.2.86.35 1.31.44.52.07 1.04.11 1.56.12.22.01.51.02.64.02h11.9c.14 0 .42-.01.64-.01.52-.01 1.04-.06 1.55-.13.46-.09.9-.23 1.32-.44.88-.44 1.6-1.16 2.05-2.04.2-.42.35-.86.44-1.31.07-.52.11-1.04.13-1.56 0-.23.01-.51.01-.64V5.55c0-.14 0-.42-.01-.64ZM11.76 19.9h-.01c-1.43 0-2.85-.36-4.11-1.05l-4.57 1.2 1.22-4.46a8.638 8.638 0 0 1-1.07-5.43 8.582 8.582 0 0 1 2.45-4.97 8.642 8.642 0 0 1 4.97-2.45 8.65 8.65 0 0 1 5.43 1.09c1.64.95 2.92 2.41 3.65 4.16.72 1.75.85 3.7.36 5.53a8.563 8.563 0 0 1-3.08 4.6 8.571 8.571 0 0 1-5.24 1.78Z"/><path d="M11.76 4.12c-1.28 0-2.54.35-3.64 1S6.11 6.7 5.49 7.82a7.091 7.091 0 0 0-.89 3.66c.03 1.28.41 2.53 1.09 3.61l.17.27L5.14 18l2.71-.71.26.16c1.1.65 2.36 1 3.64 1h.01c1.9 0 3.72-.76 5.06-2.1a7.161 7.161 0 0 0 2.1-5.06c0-1.9-.76-3.72-2.1-5.07a7.161 7.161 0 0 0-5.06-2.1Zm4.21 10.24c-.16.26-.37.49-.62.66-.25.18-.53.3-.83.36-.45.08-.92.05-1.36-.08-.41-.13-.82-.28-1.22-.46a9.456 9.456 0 0 1-3.68-3.25c-.51-.63-.81-1.41-.88-2.22-.01-.34.06-.67.19-.98.13-.31.32-.58.56-.81.07-.09.16-.15.26-.2.1-.05.21-.07.32-.07h.41c.13.01.31-.05.48.37.18.43.61 1.49.67 1.6.03.06.05.12.05.19.01.06-.01.13-.03.19-.06.13-.13.25-.22.36-.11.12-.23.28-.32.37-.11.11-.22.23-.1.44.33.55.73 1.06 1.2 1.49.51.46 1.1.82 1.73 1.07.22.11.34.09.47-.05.12-.15.53-.63.68-.85.14-.21.29-.18.48-.1.2.07 1.26.59 1.47.7.22.11.36.16.42.25.06.34.01.7-.13 1.02Z"/></g></symbol></svg>