<svg xmlns="http://www.w3.org/2000/svg" xmlns:xlink="http://www.w3.org/1999/xlink"><symbol id="cart" viewBox="0 0 25 22"><g><path d="m24.53 20.21-1.66-15c-.04-.34-.21-.66-.46-.89-.26-.23-.6-.36-.94-.36h-4.34A5.183 5.183 0 0 0 15.47.62a5.18 5.18 0 0 0-6.95 0c-.95.87-1.54 2.06-1.66 3.34H2.52c-.34 0-.68.13-.94.36-.25.23-.42.55-.46.89l-1.66 15a1.438 1.438 0 0 0 .35 1.1c.13.15.29.26.47.34.18.09.38.13.57.13h22.28c.2 0 .4-.04.58-.13.18-.08.34-.19.47-.34.13-.15.23-.32.29-.51.06-.19.08-.39.06-.59ZM12 .21c1.03.01 2.03.39 2.81 1.08.77.69 1.26 1.64 1.38 2.67H7.8c.12-1.03.61-1.98 1.38-2.67C9.96.6 10.96.22 12 .21Zm11.48 20.47c-.04.05-.09.09-.15.12s-.13.04-.19.04H.85c-.06 0-.13-.01-.19-.04a.443.443 0 0 1-.15-.12.367.367 0 0 1-.1-.17c-.02-.06-.03-.13-.02-.19l1.67-15c.01-.12.06-.22.15-.3.08-.08.2-.12.31-.12h4.32v3.28c0 .13.05.25.14.33.08.09.2.14.33.14.12 0 .24-.05.33-.14.09-.08.14-.2.14-.33V4.9h8.43v3.28c0 .13.05.25.14.33.09.09.21.14.33.14.13 0 .25-.05.33-.14.09-.08.14-.2.14-.33V4.9h4.32c.11 0 .23.04.31.12.09.08.14.18.15.3l1.67 15c.01.06 0 .13-.02.19-.02.07-.05.12-.1.17Z"/></g></symbol><symbol id="close" viewBox="0 0 9 9"><g><path d="m8.42-.94.51.51-9.36 9.36-.51-.51L8.42-.94Z"/><path d="m-.43-.94 9.36 9.36-.51.51L-.94-.43l.51-.51Z"/></g></symbol><symbol id="instagram" viewBox="0 0 25 25"><g><path d="M12.48 8.32c-2.29 0-4.16 1.87-4.16 4.17a4.17 4.17 0 0 0 4.16 4.16c2.3 0 4.17-1.87 4.17-4.16 0-2.3-1.87-4.17-4.17-4.17Zm12.5 4.17c0-1.73.01-3.44-.08-5.16-.1-2 .05-4.38-1.42-5.84C22.02.02 19.64.17 17.64.08 15.92-.02 14.21 0 12.49 0c-1.73 0-3.44-.02-5.16.08-2 .09-4.38-.06-5.85 1.41C.02 2.95.17 5.33.08 7.33-.02 9.06 0 10.76 0 12.49c0 1.72-.02 3.43.08 5.15.09 2-.06 4.38 1.4 5.85 1.47 1.46 3.85 1.31 5.85 1.41 1.73.09 3.43.08 5.16.08 1.72 0 3.43.01 5.15-.08 2-.1 4.38.05 5.84-1.41 1.47-1.47 1.32-3.85 1.42-5.85.1-1.72.08-3.43.08-5.15Zm-12.5 6.41a6.41 6.41 0 0 1-6.41-6.41c0-3.55 2.87-6.41 6.41-6.41 3.55 0 6.41 2.86 6.41 6.41 0 3.54-2.86 6.41-6.41 6.41Zm6.68-11.59a1.496 1.496 0 1 1 1.49-1.5c0 .2-.04.4-.11.58-.08.18-.19.34-.33.48-.13.14-.3.25-.48.33-.18.07-.38.11-.57.11Z"/></g></symbol><symbol id="logo" viewBox="0 0 34 75"><g><path d="M11.04 53.09c-.24-.56-.36-1.42-.36-2.58V23.03c0-1.2.12-2.08.36-2.64.28-.6.78-1 1.5-1.2.76-.24 1.92-.36 3.48-.36.08 0 .12-.13.12-.37 0-.23-.04-.35-.12-.35l-2.82.06c-1.68.08-3.06.12-4.14.12-.96 0-2.28-.04-3.96-.12l-2.94-.06c-.08 0-.12.12-.12.35q0 .33.09.36.01.01.03.01c1.56 0 2.7.12 3.42.36q.92.24 1.33.83.1.14.17.31c.28.56.42 1.44.42 2.64v27.78c0 1.2-.14 2.1-.42 2.7-.24.56-.74.94-1.5 1.14-.72.2-1.86.3-3.42.3-.08 0-.12.12-.12.36s.04.36.12.36h27.6c.36 0 .6-.06.72-.18.12-.16.18-.4.18-.72 0-2.04.18-4.64.54-7.8 0-.12-.12-.18-.36-.18-.2-.04-.3 0-.3.12-.72 5.08-3.06 7.62-7.02 7.62h-7.68c-1.52 0-2.64-.1-3.36-.3-.68-.2-1.16-.56-1.44-1.08Z" fill="#8A8686" fill-opacity="1.000000" fill-rule="evenodd"/><path d="M30.25 35.82c.2 0 .3-.05.3-.15l-.1-6.05c0-.3-.15-.45-.45-.45H10.2c-.07 0-.1.1-.1.3 0 .2.03.3.1.3 1.3 0 2.25.1 2.85.3q.76.2 1.11.7.08.12.14.25c.23.47.35 1.2.35 2.2v23.15q0 1.5-.35 2.25c-.2.47-.62.78-1.25.95-.6.17-1.55.25-2.85.25-.07 0-.1.1-.1.3 0 .2.03.3.1.3q1.6 0 2.5-.05l3.3-.05 4.35.05q1.15.05 3.2.05c.1 0 .15-.1.15-.3 0-.2-.05-.3-.15-.3-1.87 0-3.24-.1-4.1-.3-.84-.2-1.41-.53-1.7-1-.3-.5-.46-1.28-.46-2.35V45.22h5.26c1.83 0 3.1.3 3.8.9q1.1.9 1.1 3.15c0 .07.1.1.3.1.2 0 .3-.03.3-.1L28 46.92q-.05-.7-.05-2.15l.05-3.95c0-.07-.1-.1-.3-.1-.2 0-.3.03-.3.1q0 1.72-.86 2.54-.09.08-.19.16c-.7.5-1.9.75-3.6.75h-5.46v-11q0-1.35.36-2c.23-.43.64-.73 1.25-.9.6-.17 1.51-.25 2.75-.25h3.45q1.38 0 2.43.59.61.35 1.12.91c.9 1 1.35 2.35 1.35 4.05 0 .1.08.15.25.15Z" fill-rule="evenodd"/></g></symbol><symbol id="phone" viewBox="0 0 14 14"><g><path d="M12.62 13.5c.62 0 1.13-.51 1.13-1.13V9.75c0-.63-.51-1.13-1.13-1.13-.88 0-1.74-.14-2.57-.41-.19-.06-.4-.07-.6-.02-.2.05-.39.15-.54.29L7.83 9.56a10.95 10.95 0 0 1-4.41-4.41l1.07-1.08c.31-.28.42-.72.29-1.14A8.26 8.26 0 0 1 4.37.37c0-.62-.5-1.12-1.12-1.12H.62C0-.75-.5-.25-.5.37c0 7.24 5.88 13.13 13.12 13.13ZM.62 0h2.63c.09 0 .19.03.26.1.07.08.11.17.11.27 0 .96.15 1.9.44 2.79.03.06.03.13.01.2a.27.27 0 0 1-.1.17L2.5 5.01c1.23 2.42 3.04 4.23 5.48 5.47l1.46-1.46c.05-.05.11-.09.18-.1.07-.02.14-.02.21 0 .89.3 1.83.45 2.79.45.21 0 .38.17.38.38v2.62c0 .21-.17.38-.38.38C5.8 12.75.25 7.19.25.37c0-.1.03-.19.1-.27C.42.03.52 0 .62 0Z"/></g></symbol><symbol id="search" viewBox="0 0 15 15"><g><path d="m13.94 13.55-3.22-3.23a6.22 6.22 0 0 0 1.62-4.39 6.207 6.207 0 0 0-1.92-4.26A6.18 6.18 0 0 0 6.07-.05c-1.61.02-3.16.67-4.31 1.81A6.225 6.225 0 0 0-.05 6.07a6.18 6.18 0 0 0 1.72 4.35 6.153 6.153 0 0 0 4.26 1.91c1.62.06 3.2-.52 4.39-1.61l3.23 3.22c.05.06.12.09.19.09.08 0 .15-.03.2-.09.06-.05.09-.12.09-.19 0-.08-.03-.15-.09-.2ZM.53 6.15c0-1.11.33-2.2.94-3.12C2.09 2.1 2.97 1.38 4 .95 5.03.53 6.16.42 7.25.63c1.09.22 2.09.76 2.88 1.54a5.64 5.64 0 0 1 1.54 2.88c.22 1.09.1 2.23-.32 3.25a5.695 5.695 0 0 1-2.07 2.53c-.93.62-2.02.95-3.13.95-1.49-.01-2.92-.6-3.97-1.65A5.624 5.624 0 0 1 .53 6.15Z"/></g></symbol><symbol id="viber" viewBox="0 0 24 24"><g><path d="M19.99 24h-16c-2 0-2.53-.3-3.12-.88C.29 22.53-.01 22 0 20V4C0 2 .29 1.46.87.87 1.46.29 1.99 0 3.99 0h16c.82 0 2.01.01 3 1 .98.98.98 2.17.98 3v16c.02 2-.29 2.53-.88 3.12-.58.58-1.1.88-3.1.88ZM7.49 9V6.75c0-.43-.13-.84-.39-1.25-.26-.4-.54-.69-.85-.86-.32-.18-.56-.18-.73-.03L3.81 6.35c-.47.47-.73 1.09-.79 1.88-.07.79.05 1.65.36 2.58.3.93.79 1.92 1.46 2.95.67 1.04 1.48 2.03 2.41 2.97.94.94 1.93 1.74 2.97 2.41 1.03.68 2.02 1.17 2.95 1.48.92.31 1.78.44 2.57.38.79-.07 1.42-.33 1.89-.8l1.73-1.74c.16-.15.15-.39-.02-.71-.18-.32-.47-.61-.87-.87-.41-.26-.82-.38-1.24-.38h-2.25l-1.52.93c-.7-.18-1.57-.69-2.6-1.52a18.4 18.4 0 0 1-2.79-2.79c-.82-1.03-1.33-1.9-1.52-2.6L7.49 9Zm8.94 3.75 1.52.25c-.12-1.87-.85-3.47-2.17-4.8-1.33-1.33-2.92-2.06-4.78-2.18l.23 1.52c1.36.17 2.52.74 3.49 1.71a5.85 5.85 0 0 1 1.71 3.5Zm-4.91-3.64.28 1.69c.61.3 1.07.76 1.38 1.38l1.68.28c-.2-.82-.6-1.54-1.2-2.14-.6-.6-1.32-1-2.14-1.21ZM10.49 3l.25 1.52c1.56.03 3 .44 4.32 1.23a8.94 8.94 0 0 1 3.16 3.16c.79 1.32 1.2 2.76 1.23 4.33l1.52.26c0-1.43-.27-2.79-.83-4.08-.55-1.3-1.3-2.42-2.23-3.35a10.53 10.53 0 0 0-3.35-2.24c-1.3-.56-2.65-.83-4.07-.83Z"/></g></symbol><symbol id="whatsup" viewBox="0 0 24 24"><g><path d="M23.57 4.91c-.01-.52-.06-1.04-.13-1.55-.08-.46-.23-.9-.44-1.32-.44-.88-1.16-1.6-2.04-2.05-.42-.2-.86-.35-1.31-.44-.52-.07-1.04-.11-1.56-.12-.22-.01-.51-.01-.64-.01L5.55-.59c-.14 0-.42.01-.64.01-.52.01-1.04.06-1.55.13-.46.09-.9.23-1.32.44C1.16.43.44 1.15-.01 2.03c-.2.42-.35.86-.44 1.31-.07.52-.11 1.04-.12 1.56-.01.22-.02.51-.02.64v11.9c0 .14.01.42.01.64.01.52.06 1.04.13 1.55.09.46.23.9.44 1.32.44.88 1.16 1.6 2.04 2.05.42.2.86.35 1.31.44.52.07 1.04.11 1.56.12.22.01.51.02.64.02h11.9c.14 0 .42-.01.64-.01.52-.01 1.04-.06 1.55-.13.46-.09.9-.23 1.32-.44.88-.44 1.6-1.16 2.05-2.04.2-.42.35-.86.44-1.31.07-.52.11-1.04.13-1.56 0-.23.01-.51.01-.64V5.55c0-.14 0-.42-.01-.64ZM11.76 19.9h-.01c-1.43 0-2.85-.36-4.11-1.05l-4.57 1.2 1.22-4.46a8.638 8.638 0 0 1-1.07-5.43 8.582 8.582 0 0 1 2.45-4.97 8.642 8.642 0 0 1 4.97-2.45 8.65 8.65 0 0 1 5.43 1.09c1.64.95 2.92 2.41 3.65 4.16.72 1.75.85 3.7.36 5.53a8.563 8.563 0 0 1-3.08 4.6 8.571 8.571 0 0 1-5.24 1.78Z"/><path d="M11.76 4.12c-1.28 0-2.54.35-3.64 1S6.11 6.7 5.49 7.82a7.091 7.091 0 0 0-.89 3.66c.03 1.28.41 2.53 1.09 3.61l.17.27L5.14 18l2.71-.71.26.16c1.1.65 2.36 1 3.64 1h.01c1.9 0 3.72-.76 5.06-2.1a7.161 7.161 0 0 0 2.1-5.06c0-1.9-.76-3.72-2.1-5.07a7.161 7.161 0 0 0-5.06-2.1Zm4.21 10.24c-.16.26-.37.49-.62.66-.25.18-.53.3-.83.36-.45.08-.92.05-1.36-.08-.41-.13-.82-.28-1.22-.46a9.456 9.456 0 0 1-3.68-3.25c-.51-.63-.81-1.41-.88-2.22-.01-.34.06-.67.19-.98.13-.31.32-.58.56-.81.07-.09.16-.15.26-.2.1-.05.21-.07.32-.07h.41c.13.01.31-.05.48.37.18.43.61 1.49.67 1.6.03.06.05.12.05.19.01.06-.01.13-.03.19-.06.13-.13.25-.22.36-.11.12-.23.28-.32.37-.11.11-.22.23-.1.44.33.55.73 1.06 1.2 1.49.51.46 1.1.82 1.73 1.07.22.11.34.09.47-.05.12-.15.53-.63.68-.85.14-.21.29-.18.48-.1.2.07 1.26.59 1.47.7.22.11.36.16.42.25.06.34.01.7-.13 1.02Z"/></g></symbol><symbol id="promo-signature" viewBox="0 0 253 188"><g><path d="m18.18 136.43 1.73-.31c.29-.22.6-.27.89-.49 4.39-1.77 7.93-4.68 11.41-7.92 2.65-2.43 5.11-4.99 7.15-8.12.49-.9 1.19-1.51 2.23-2.03 1.31-.88 2.8-1.64 4.28-2.4l9.8-5.19c3.45-1.6 6.93-3.04 10.41-4.48 6.35-2.61 12.68-5.38 19.09-7.68 7.93-2.9 15.74-5.61 23.87-7.41.44-.24.78-.14.83-.8-.06-.32-.59-.54-.9-.49-.12 0-.25 0-.38-.01-.76-.02-1.68-.06-2.17.31-1.78.97-3.82 1.34-5.68 1.84-6.22 1.61-12.1 4.14-18.1 6.04-3.66 1.31-6.99 2.73-10.44 4.33-4.81 2.17-9.83 4.05-14.64 6.22-4.5 2.12-8.96 4.39-13.43 6.66-.04.03-.08.06-.13.1-.27.21-.6.48-.79.23-.34-.36-.08-.7.16-1.03.04-.05.08-.11.12-.16.87-1.46 1.93-2.79 2.78-4.4 2.72-4.72 4.88-9.83 6.86-15.07 1.98-5.23 3.81-10.44 4.76-15.98.73-4.03 1.43-8.23 1.82-12.36.25-3.14.34-6.24.56-9.53.26-3.95.17-8 .09-12.05-.14-4.37-.56-8.52-1.17-12.8-.02-.09-.04-.21-.06-.33-.09-.66-.23-1.57-.76-1.47-.79.14-.27 1.19-.47 1.87l.11.63c.54 3 .58 5.91.78 8.81.53 5.59.71 11.09.39 16.51-.48 5.45-.8 10.88-1.59 16.39-1.25 8.35-4.17 16.52-7.29 24.4-2.53 5.83-5.45 11.23-8.88 16.57-.64.93-1.13 1.83-2.3 2.53-6.32 3.74-12.73 7.83-18.53 12.62-1.56 1.26-2.88 2.96-3.51 4.86-.46 1.06-.03 1.63 1.1 1.59Zm124.64-74.58c-.62 1.09-1.07 2.15-.22 3.29.83.99 1.99 1.1 3.28 1.03.13-.18.44-.24.76-.3 4.39-1.77 7.47-5.41 10.58-8.9.13-.19.1-.35.07-.5-.02-.16-.18-.13-.5-.08-.44.25-1.07.36-1.46.92-1.16 1.67-2.75 2.77-4.31 4.03-1.69 1.45-3.56 2.76-5.71 3.47-.47.09-1.1.2-1.53-.37-.21-.37-.06-.69.13-1.1.04-.08.07-.16.11-.24.92-2.12 2.15-4.3 3.6-6.18.04-.07.09-.13.13-.19.34-.46.6-.83.08-1.32-.42-.57-1.05-.45-1.66-.18-1.04.51-2.06 1.18-3.1 1.7-.29.21-.73.45-.95.17-.26-.19-.13-.44.01-.7.05-.1.11-.21.14-.3.56-1.41 1.12-2.81 1.49-4.34.07-.5.12-1.16-.41-1.39-.72-.36-1.22-.43-1.79 0-.13.19-.42.4-.55.59-2.02 2.31-3.69 4.73-4.81 7.53-.43 1.08-.26 1.76.52 2.12-1.54.79-3.11 1.63-4.61 2.36-2.82 1.49-5.48 2.95-8.39 3.96-.91.33-2.02.53-3.05.23-.34-.1-.71-.36-.8-.83-.05-.32.42-.4.73-.46 1.18-.7 2.35-1.4 3.34-2.23.96-.99 1.1-1.99.46-2.85-.83-.99-2.12-.92-3.08.07-.92.69-1.67 1.55-2.32 2.46-1.96.68-3.9 1.46-5.86 2.11-1.51.6-2.9 1.01-4.26 1.58-.6.28-.98.02-.8-.83.25-.37.33-.87.24-1.34.14-1-.31-1.73-1.31-1.88-.88-.33-1.45.1-1.81.82-.49.9-.97 1.8-1.49 2.54-.49.9-.34 1.69.4 2.21.74.51.64.86.26 1.41-1.14 1.84-.89 2.28-2.45 3.54-1.28 1.04-2.53 2.24-4.07 2.68-1.58.29-2.13-.1-2.07-1.57-.06-2.11.7-4.19.99-6.2.23-.53.27-1.18-.26-1.41-.61-.13-.9.11-1.09.52-.73.15-1.42.42-2.01.52l-1.54.3c-1.51.31-3.01.61-4.47.63-.47.08-.72-.36-.96-.8-1.16-1.91-3-2.22-4.66-.62-.07.07-.13.14-.2.22-.62.7-1.28 1.44-.98 2.27.33.91 1.36 1.21 2.3 1.04.66.05.72.36.3.76-.41.4-.8.96-1.37 1.39-.09.06-.17.13-.26.2-.77.59-1.54 1.18-2.52.63-1.08-.62-.65-1.84-.32-2.71.01-.06.03-.11.05-.17.11-.29.22-.58-.23-.77-.37-.26-.81-.02-1.07.35-.51.75-.49 2.69-.03 3.42.49.89 2.07 1.58 3.18 1.38.63-.11 1.07-.36 1.64-.78 1.3-.89 2.42-1.91 3.3-3.37.35-.71.9-1.3 1.71-1.28 2.2.11 4.35-.57 6.6-1.28.43-.14.85-.27 1.29-.41-.32 1.72-.74 3.47-1.01 5.32-.36 2.51 1.56 4.11 4.07 3.66.63-.12 1.11-.2 1.39-.42 3.4-1.91 4.08-3.5 6.12-6.63.39-.56.62-1.09 1.4-1.23 3.76-1.11 7.42-2.81 11.05-4.59-.07.12-.14.23-.21.35-.12.19-.22.53-.17.84.39 1.23.9 2.28 2.25 2.52 1.37.41 2.69.49 4.08.08 1.51-.6 2.84-1.33 4.36-1.93 3.22-1.66 6.39-3.54 9.46-5.54.48 0 .88-.1 1.37-.32 1.52-.6 3.01-1.36 4.5-2.11.12-.19.25-.38.6-.28.17.24.12.41.04.65-.02.05-.04.11-.06.17-.64.93-1.1 1.99-1.59 2.89Zm-3.47-3.92c-.42.4-.43 1.21-1.22 1.35-.32.06-.53-.23-.43-.57.07-.5.14-1 .4-1.37.79-1.93 2.17-3.32 3.48-5.02.13-.19.26-.37.45-.25.34.1.24.45.11.63-.82 1.78-1.45 3.68-2.79 5.23Zm-32.25 6.48c.25.44-.87 3.25-1.5 3.36-.47.09-.85-.17-.77-.67.3-1.03.94-1.96 1.62-2.73.28-.22.44-.25.65.04Zm45.43 65.28c-.38 1.4-.75 2.79-.15 4.17.72 3.12 2.55 4.25 5.12 3.14 1.2-.55 2.19-1.37 3.15-2.36 1.8-2.26 3.46-4.61 5.34-6.82.03.56.14 1.09.34 1.4.48.89 2.07 1.58 3.17 1.38.63-.12 1.08-.36 1.65-.79 1.3-.89 2.42-1.9 3.29-3.36.36-.71.91-1.3 1.72-1.28 2.2.11 4.35-.57 6.6-1.29.45-.14.9-.28 1.36-.42-.42 1.27-.49 2.59-.71 3.81-.07.5.17.94.54 1.2 1.12.78 2.12.92 3.24-.1.28-.21.7-.61.96-.98.54-.59.76-.3.87.33.23 1.26 1.1 1.59 2.13 1.89 1 .14 1.92-.19 2.65-.64 1.75-1.13 2.52-2.25 3.31-4.18.74-1.27 1.67-2.42 3.25-2.7.94-.17 1.67-.63 2.59-.96 1.43-.53 2.83-1.18 4.25-1.75-.11.18-.23.37-.34.56-.13.18-.23.53-.17.84.39 1.23.9 2.28 2.24 2.52 1.38.4 2.69.49 4.08.08 1.52-.6 2.85-1.33 4.37-1.93 3.21-1.67 6.39-3.55 9.45-5.54.49-.01.89-.1 1.38-.32 1.52-.6 3-1.36 4.49-2.12.13-.18.26-.37.6-.27.18.24.12.4.04.65-.01.05-.03.11-.05.17-.65.93-1.1 1.99-1.59 2.89-.62 1.08-1.08 2.14-.22 3.29.83.99 1.99 1.1 3.28 1.03.13-.18.44-.24.76-.3 4.39-1.77 7.47-5.42 10.58-8.91.13-.18.1-.34.07-.5-.03-.15-.18-.13-.5-.07-.44.24-1.07.36-1.46.92-1.16 1.67-2.75 2.77-4.31 4.03-1.69 1.44-3.57 2.76-5.71 3.47-.48.09-1.11.2-1.54-.37-.2-.38-.05-.7.14-1.1.04-.08.07-.16.11-.25.92-2.11 2.15-4.29 3.6-6.18.04-.06.09-.12.13-.18.34-.47.6-.84.08-1.32-.43-.57-1.06-.46-1.66-.19-1.04.52-2.06 1.19-3.1 1.7-.29.22-.73.46-.95.17-.26-.18-.13-.44.01-.69.05-.11.11-.21.14-.31.55-1.4 1.11-2.8 1.49-4.33.07-.5.11-1.16-.42-1.39-.71-.36-1.21-.43-1.79 0-.12.18-.41.4-.54.58-2.02 2.32-3.7 4.74-4.81 7.54-.43 1.08-.26 1.76.52 2.11-1.54.8-3.11 1.63-4.61 2.37-2.82 1.49-5.48 2.94-8.39 3.96-.92.33-2.02.53-3.05.22-.34-.1-.71-.35-.8-.83-.06-.31.42-.4.73-.45 1.17-.7 2.35-1.4 3.34-2.23.96-.99 1.1-1.99.46-2.85-.83-.99-2.12-.92-3.08.07-.88.66-1.61 1.48-2.25 2.35-.05.01-.1.03-.15.03l-.47.09c-2.33.58-4.77 1.51-7.23 2.28-.76.3-1.41.26-1.74-.66-.49-.89-1.33-1.06-2.18-1.23-.84-.17-1.54.44-1.56 1.26-.01.81.42 1.39 1.16 1.9.34.1.56.39.49.89-1.02 2.46-2.27 3.66-4.46 5.03-.41.4-.79.14-.9-.48-.17-.95-.37-2.05.09-3.11.23-.53.14-1-.54-1.2-.56-.39-1.01-.15-1.39.41-.78 1.12-1.87 2.29-3.14 3.33-.13.19-.26.37-.44.25-.3-.09-.25-.24-.16-.49.01-.04.03-.09.04-.14.17-.85.16-1.82.65-2.72.2-.69.14-1-.57-1.36-.45-.23-.71-.1-.89.15-.04.01-.07.02-.09.03-.79.14-1.55.44-2.18.55-.51.09-1.03.2-1.54.3-1.52.31-3.01.61-4.47.63-.47.08-.72-.36-.96-.81-1.16-1.9-3-2.22-4.66-.62l-.2.23c-.63.7-1.28 1.43-.98 2.26.33.92 1.36 1.22 2.3 1.05.66.04.72.36.3.76-.41.4-.8.96-1.37 1.39-.09.06-.17.13-.26.19-.77.6-1.54 1.19-2.52.63-1.09-.61-.66-1.83-.33-2.7.02-.06.04-.12.06-.17.11-.29.21-.58-.23-.78-.37-.25-.81-.01-1.07.36-.18.26-.29.66-.34 1.1-2.09 2.31-4.07 4.58-6.2 6.75-.96.99-2.08 2-3.47 2.42-.76.3-1.41.25-2.03-.45-.88-1.3-.74-4.09.19-5.24 2.12-2.66 3.93-5.26 5.7-8.02 4.43-6.98 9.05-13.83 12.57-21.3 1.54-3.2 3.26-6.28 4.82-9.33 1.08-2.14 1.99-4.26 3.13-6.09 1.52-2.57 2.71-5.36 3.91-8.04.28-.1.57-.2.85-.3.09-.05.18-.09.26-.13.35-.16.61-.29.42-.64-.08-.42-.37-.67-.75-.56 1.3-2.7 2.36-5.47 3.26-8.35 1.09-2.96 2.03-5.9 2.12-9 .01-.82-.13-1.61-.88-2.12-.9-.49-1.68-.35-2.54.3-.42.4-.83.8-1.09 1.17-1.38 1.39-2.38 3.03-3.54 4.7-2.45 3.54-4.56 7.17-6.66 10.8-1.42 2.43-2.82 4.9-4.18 7.38-5.86 2.03-11.75 4.11-17.45 6.45-8.06 3.09-16.06 6.49-23.85 10.17-7.16 3.57-14.26 7.46-21.36 11.35-5.93 3.18-11.64 6.66-17.33 10.29-.73.45-1.43 1.07-2 1.5-.04.05-.09.1-.15.16-.17.15-.37.34-.21.55.21.29.5.07.63-.11 1.83-.66 3.26-1.73 4.88-2.67 8.58-5.62 17.45-10.48 26.52-15.21 7.26-3.91 14.73-7.54 22.45-10.73 5.15-2.07 10.12-4.27 15.3-6.18 3.93-1.44 7.87-2.83 11.81-4.19-1.12 2.08-2.21 4.15-3.25 6.22-2.48 5.16-4.99 10.17-7.31 15.31-.1.23-.2.45-.3.68q-6.26 3.51-12.46 7.32c-.1.01-.21.07-.33.12-.25.12-.52.25-.78.08-.36-.16-.29-.47-.23-.75.03-.13.05-.26.04-.36.7-4.19 1.09-8.32 1.29-12.59-.01-.97-.21-2.07-.57-3.15-.05-.31-.27-.6-.74-.51-.38.06-.3.36-.22.64.02.07.04.14.05.2.2 1.1.24 2.23.12 3.39-.17 4.42-.82 8.93-1.31 13.41-.01.82-.56 1.4-1.29 1.86-4.51 2.93-8.99 6.02-13.1 9.36-5.93 4.98-11.86 9.95-17.02 15.6-4.48 4.88-8.03 10.4-11.03 16.3-1.69 3.24-2.73 6.51-2.89 10.12-.11 4.74 2.45 7.2 7.1 6.85.97-.02 2.07-.22 3.2-.26 2.36-.43 4.48-1.3 6.57-2.32 4.86-2.83 8.91-6.5 12.51-10.88 2.92-3.62 5.25-7.79 7.41-12.08 2.02-4.1 3.67-8.47 5.16-12.8 1.92-5.55 3.18-11.15 3.95-16.81.29-2.01.82-3.56 2.91-4.59 3.64-2.13 7.15-4.5 10.9-6.51-.84 1.84-1.71 3.66-2.38 5.62-1.98 5.23-3.46 10.54-4.23 16.21-.08.59-.24 1.19-.39 1.78Zm8.79-24.52c-1.81 4.16-3.59 8.36-4.85 12.66-.78 2.91-1.39 5.78-2.01 8.66l-.03.1c-.11.34-.25.8.23 1 .37.06.5-.21.66-.5.05-.1.1-.2.17-.3 2.48-3.37 4.74-7.03 7.01-10.7 3.86-5.57 7.02-11.51 10.33-17.48 2.05-3.94 4.07-8.05 6.28-12.03 1.47-2.82 2.88-5.65 4.2-8.52-3.56 1.23-7.13 2.44-10.7 3.67-.97 1.74-1.93 3.48-2.86 5.25-2.38 4.82-4.73 9.8-6.93 14.75-.25.57-.5 1.14-.75 1.72q.83-.46 1.65-.91c.16-.03.29-.22.6-.27.32-.06.5.07.72.36.17.23.02.41-.12.57-.03.04-.06.08-.08.11-.58.43-.99.83-1.47.92-.69.29-1.37.61-2.05.94Zm12.07-24.84c2.35-.81 4.69-1.62 7.01-2.43 1.25-.47 2.41-.92 3.61-1.38 1.76-3.95 3.32-7.98 4.58-12.14.6-2.06 1.02-4.25.93-6.51-.14-.79-.83-.99-1.53-.37-1.98 1.66-3.05 3.8-4.34 5.66-2.55 3.88-4.94 7.73-7.18 11.54-1 1.9-2.04 3.77-3.08 5.63ZM21.23 134.42c-.6.27-1.36.57-1.83.65-.76.3-.98.02-.9-.48.04-.66.45-1.06.87-1.46 2.54-3.06 5.74-5.11 8.89-7.47 2.61-1.77 5.22-3.54 7.85-5.16.03-.02.07-.05.11-.08.28-.22.64-.5.96-.27.22.39-.11.63-.39.83-.03.02-.06.05-.09.07-1.99 2.47-4.17 4.82-6.38 7.01-2.78 2.61-5.67 4.6-9.09 6.36Zm93.04 35.44c-1.51.6-3.06 1.04-4.82 1.2-.27.05-.55.1-.82.16-.82.18-1.64.36-2.51.28-3.93-.11-5.77-2.21-5.35-6.19.35-3.48 1.38-6.75 3.1-9.83 1.46-2.7 2.92-5.41 4.6-7.82 2.61-3.56 5.21-7.13 8.25-10.11 4.7-4.59 9.43-9.03 14.55-13.04 4.14-3.19 8.15-6.19 12.37-8.91.06-.04.12-.09.17-.14.23-.2.45-.39.75-.19.37.26.27.6.14.79-.37 3.32-.96 6.35-1.68 9.57-2.18 9.5-5.93 18.47-10.88 27.01-2.24 3.82-5.01 7.41-8.36 10.46-2.9 2.8-5.9 5.13-9.51 6.76Zm113.95-56.88c-.41.4-.43 1.22-1.21 1.36-.32.06-.53-.23-.43-.57.07-.5.14-1 .4-1.38.79-1.93 2.16-3.31 3.48-5.02.13-.18.26-.37.45-.24.34.1.24.45.11.63-.82 1.78-1.45 3.68-2.8 5.22Z" fill-rule="evenodd"/></g></symbol></svg>